<svg xmlns="http://www.w3.org/2000/svg" viewBox="0 0 300 200"><defs><style>.a{fill:#dceeff;}.b{fill:#00dbcc;}.c{fill:#fff;}.d{fill:#1b6878;}.e{fill:#a8d3ff;}.f{fill:#293754;}.g{fill:#3f9fff;}.h{fill:#6fb7ff;}.i{fill:#97a2b9;}.j,.o{fill:none;stroke-miterlimit:10;}.j{stroke:#fff;stroke-width:0.2px;}.k{fill:#c6ccd5;}.l{fill:#ff4575;}.m{fill:#ebeff3;}.n{fill:#128990;}.o{stroke:#293754;stroke-width:0.17px;}.p{fill:#73b9ff;}</style></defs><path class="a" d="M218.41,56.72C141.3,73.87,145.49,67.3,104.43,45,32.8,6.12-14.79,60.33,13.08,86.11c20.17,18.67,50.34,4.58,21.13,54.42-30.09,51.35,115.53,78.9,192.87,43.6C332.59,136,303.76,37.74,218.41,56.72Z"/><polygon class="b" points="193 0 252.38 34.28 222.12 75.34 162.74 41.06 193 0"/><polygon class="c" points="210.93 26.34 218.25 30.57 204.69 49 197.36 44.77 210.93 26.34"/><polygon class="c" points="200.81 29.11 219.48 39.88 214.31 46.79 195.64 36.01 200.81 29.11"/><polygon class="d" points="252.38 34.28 283.43 39.95 224.04 5.67 193 0 252.38 34.28"/><polygon class="e" points="283.43 39.95 283.43 97.51 222.12 132.9 222.12 75.34 252.38 34.28 283.43 39.95"/><polygon class="c" points="222.12 75.34 222.12 132.9 210.19 126.01 202.51 121.58 182.35 109.94 174.68 105.51 162.74 98.62 162.74 41.06 222.12 75.34"/><polygon class="f" points="210.8 82.23 210.8 126.36 174.07 105.16 174.07 61.03 210.8 82.23"/><polygon class="g" points="257.04 65.94 257.04 81.25 271.72 72.77 271.72 57.45 257.04 65.94"/><polygon class="g" points="235.7 78.29 235.7 93.61 250.39 85.13 250.39 69.8 235.7 78.29"/><path class="a" d="M273.44,106.82c-1.34-.41-2.47.87-3.79,2.35-.84,1-2.27,2.55-2.79,2.19s-.92-.73-.92-1.18c0-1.17,2.61-2.94,4.7-4.35,2.89-2,5.61-3.8,5.62-6a3.49,3.49,0,0,0-1.8-2.87,3,3,0,0,0-2.48-.56c-1.75.44-2.81,2.52-3.85,4.54-.62,1.23-1.49,2.92-2.1,3.08,0,0-.13,0-.35-.11-2.17-1.41-.14-6.53,1.64-11s3.45-8.72,2-11.13A3.7,3.7,0,0,0,266.4,80a3.9,3.9,0,0,0-3.33.94c-1.76,1.73-1.43,5.17-1.11,8.48.19,2,.44,4.63-.15,5.14-.11.09-.38.09-.74,0-1.22-.32-1.34-1.68-1.39-3.88,0-1.66-.07-3.39-1.26-4.26a3.38,3.38,0,0,0-3.06-.22,3.5,3.5,0,0,0-2.6,2.14c-.61,2,1.14,4.14,3.17,6.68,2.86,3.58,4.59,6,2.65,7.65-.16.13-.24.12-.27.12-.48,0-1.37-1.17-1.95-1.92-1.08-1.36-2.19-2.76-3.68-2.71h-.09a3.33,3.33,0,0,0-2.52,2c-1.06,1.84-1.35,3.33-.89,4.57.69,1.87,2.81,2.62,5.06,3.41,2,.7,4,1.42,5.14,2.87.1.18.2.34.3.49l.1.16a5.2,5.2,0,0,1,.43,1.28c.09.49.19.94.29,1.37-.69,0-1.52-1.18-2.25-2.2-.94-1.31-1.92-2.67-3.32-2.7a2.87,2.87,0,0,0-2.25,1.3,3.75,3.75,0,0,0-1,3.31c.51,1.81,2.72,2.65,5.06,3.54,2.08.79,4.44,1.69,4.5,3.06.08,2.2,1.35,3.18,2.48,3.17h.05c1.29-.05,2.6-1.35,2.63-4.17.06-4.62,2.35-5,4.77-5.4,1.89-.31,4.48-.74,4-4.13C275,108.76,274.66,107.19,273.44,106.82Z"/><path class="h" d="M235.67,125a6.36,6.36,0,0,1-.51-4,3.4,3.4,0,0,1,2.75-2.65c1-.11,2.13.39,3.1,0,1.41-.58,1.5-2.6.91-4s-1.64-2.67-1.73-4.2a4.33,4.33,0,0,1,2.24-3.83,7.45,7.45,0,0,1,4.53-.8c2.21.24,4.68,1.6,4.73,3.81a3.2,3.2,0,0,0,.13,1.32c.46.89,1.78.61,2.7.22a11.07,11.07,0,0,1,4.46-1.07,4.49,4.49,0,0,1,3.87,2.13c1.69,3.22-2.25,7.61-.12,10.56.35.48.83.86,1.14,1.36a3.23,3.23,0,0,1-1.06,4,7.52,7.52,0,0,1-4.26,1.27,18,18,0,0,0-4.47.49c-1.6.5-2.67,1.83-4.23,2.35a10.92,10.92,0,0,1-5.59,0A12.35,12.35,0,0,1,235.67,125Z"/><path class="a" d="M256.44,133.73S247.79,123,252,121,251.9,126.05,256.44,133.73Z"/><path class="a" d="M256.39,133.56s-2.91-12.37,2-9.37C261.5,126.12,255.48,127,256.39,133.56Z"/><path class="a" d="M256.39,133.56s-15-3.43-11.45-7.69S250,128.57,256.39,133.56Z"/><path class="g" d="M271.54,128.82s1.46-7.48-1.3-8S271.72,123.72,271.54,128.82Z"/><path class="g" d="M271.52,128.71s-2-7.58-3.74-5.13C266.69,125.15,270.11,124.78,271.52,128.71Z"/><path class="g" d="M271.52,128.71s6.91-4.15,3.81-6.1S273.43,124.91,271.52,128.71Z"/><path class="h" d="M272.88,117.42c-.95-1.14-.82-2.09.4-2.87,2.31-1.26,1.92,5.47,4.41,3.81,1.62-1.09-2.8-6.08-3.21-6.8s-4.81-6.62-2.41-7.35c3.23-1,3.19,8,5.6,8,2.92,0-4-13.59,1-14.21,2.5-.31,1.4,4.87.48,7.16-1,2.5-.17,3.58.38,3.6,2.63.11,2.6-7,5.5-4.41,4.35,3.8-5.76,2.67-5.79,9,0,4.34,2.72-5.23,5.36-1,2.08,3.37-5.61,1.7-4.9,6.17.59,3.74,5.86-5.35,7.14-1,.74,2.52-4.53.67-6,3.32-.76,1.4-2.24,7.42-2.43,2.79C278.35,120.55,273.48,118.39,272.88,117.42Z"/><path class="e" d="M137.9,164.58c.06,4.19,6,7.51,13.27,7.4s13.11-3.59,13.05-7.78-6-7.51-13.27-7.4S137.84,160.39,137.9,164.58Z"/><ellipse class="g" cx="150.56" cy="108.03" rx="3.03" ry="4.36" transform="translate(-32.62 80.05) rotate(-26.98)"/><path class="f" d="M148,161.62l2.58,3.08a9.17,9.17,0,0,0,4.61.79c2.61-.24,1.94-1.28-.19-2.31a5.4,5.4,0,0,1-2-1.59c-.13-.18-.5-1-.25-1.26a5.3,5.3,0,0,0-.66.17,4,4,0,0,0-1.16.57,1.07,1.07,0,0,0-.4.86v.17s-2.14-.81-2.49-1.81Z"/><path class="g" d="M148,160.29c.35,1,2.49,1.81,2.49,1.81v-.17a1.07,1.07,0,0,1,.4-.86,4,4,0,0,1,1.16-.57l-.4-.55a2.41,2.41,0,0,1-.36-1.95l3.88-16.2-.81-.37-5.92,1.8L148,159.71Z"/><path class="f" d="M147,165.23c1.11.26,2.17,2.16,4.11,2.3s4.14-.51,1.65-2.08a10.12,10.12,0,0,1-2.41-2.23h0c0-.1-.55-1-.27-1.3a4.17,4.17,0,0,0-.57.15,4,4,0,0,0-1.25.59,1.1,1.1,0,0,0-.4.86v.17s-3-1.13-2.47-2.39l-.28.62C143.93,164.39,145.84,165,147,165.23Z"/><path class="h" d="M145.33,161.3c-.54,1.26,2.47,2.39,2.47,2.39v-.17a1.1,1.1,0,0,1,.4-.86,4,4,0,0,1,1.25-.59,15.23,15.23,0,0,1-.8-1.35.74.74,0,0,1-.08-.44l2.18-17.36-4.14-1.58c.67,1.5-.8,3.73-1.77,6.46s.87,7.83,1,10C146.05,159.74,146.15,159.51,145.33,161.3Z"/><path class="b" d="M142.84,140.64l0,3.52a1.13,1.13,0,0,0,.53.94l.26.17a5.39,5.39,0,0,0,5.71.06l7.64-4.67a1.09,1.09,0,0,0,.51-.93l-.11-7.53-1-19.44s-.86-4.53-2.93-5.07c.66,1.69.39,3.41-.75,4.09-1.33.79-3.34-.13-4.5-2.06l-.11-.19L148,122.68Z"/><path class="c" d="M142.17,140.8a1,1,0,0,0,.42.66l1.6,1a5.49,5.49,0,0,0,5.64.2l1.16-.63-.24-14.61.89.41a2.92,2.92,0,0,0,2.53,0l.63-4.16-.06-.05,0,0-.1-.06a.1.1,0,0,0,0,0l-.05,0-.11-.06a29,29,0,0,0-3.73-1.42l0-1.83s.39-8.25-1.93-12.38-1.76,0-1.76,0a8.32,8.32,0,0,0-4,5.54c-.57,3.09-1,7.54,2.15,10.75a9.61,9.61,0,0,1-1.06,2.38c-.06.09-.11.18-.16.27C141.11,131.55,141.92,139,142.17,140.8Z"/><path class="i" d="M147,106.06l.1-.11A.22.22,0,0,0,147,106.06Z"/><path class="j" d="M154.7,123.57l-.1-.06"/><path class="j" d="M150.66,122c-1.44-.5-2.64-1-2.63-1.79"/><path class="j" d="M155.33,124.28a2.76,2.76,0,0,1-.43,2.94"/><path class="c" d="M164.57,124.3l0-1.31a2.27,2.27,0,0,0-1.21-2l-4.09-2.19a1,1,0,0,1-.56-.89c-.07-1.55-.32-5.72-1.21-8A3.85,3.85,0,0,0,154,107.2l-.5.48s1.95.28,2,9.62c0,8.94.31,21.85.31,21.85l1-.53a3.34,3.34,0,0,0,1.71-3l-.17-11.82Z"/><path class="k" d="M155.47,118.44s1-6.31.71-9h-.84l.68-.88a3.9,3.9,0,0,0-3-2.91l.4,2S155.32,107.82,155.47,118.44Z"/><path class="f" d="M152.81,126.6c.06.92.5,1.6,1.36,1.21l.18-.1a2.09,2.09,0,0,0,.55-.49A6.93,6.93,0,0,1,152.81,126.6Z"/><path class="f" d="M153.7,124a2,2,0,0,0,1.63.29,2,2,0,0,0-.51-.61l0,0C154.63,123.54,154.24,123.4,153.7,124Z"/><ellipse class="f" cx="163.21" cy="122.41" rx="1.34" ry="1.4" transform="translate(-1.75 2.37) rotate(-0.83)"/><path class="c" d="M167.69,123.36l-10-1.13-2.29,4.22,6.2.84Z"/><path class="f" d="M167.69,123.36l-5.07,3a4.07,4.07,0,0,1-1.16.48h0A4.46,4.46,0,0,1,160,127l-4.64-.52v.82l4.91.47a4.17,4.17,0,0,0,1.49-.12h0a4.07,4.07,0,0,0,1.07-.46l4.86-2.93Z"/><polygon class="f" points="162.36 125.72 163.68 125.76 163.7 126.65 166.44 124.99 166.43 124.12 165.22 124.02 162.36 125.72"/><path class="h" d="M152.81,126.6a6.93,6.93,0,0,0,2.09.62,6.69,6.69,0,0,0,4.8-1.35,1,1,0,0,0,.33-1.1l-.75-2.21a.53.53,0,0,0-.41-.35l-1.32-.27-1.4.49a1.41,1.41,0,0,0-.71,1.8l-.11,0a2,2,0,0,1-1.63-.29,3.35,3.35,0,0,0-.37.47A3.69,3.69,0,0,0,152.81,126.6Z"/><path class="h" d="M162.88,121.54a2.16,2.16,0,0,1,2.1.17,1.15,1.15,0,0,1,.56,1h0a1.13,1.13,0,0,1-.47.93l-1,.74a.37.37,0,0,1-.23,0,.33.33,0,0,1-.19-.54.46.46,0,0,0,0-.1.33.33,0,0,0-.21-.45,1.9,1.9,0,0,1-.82-.37.44.44,0,0,1-.09-.11A.86.86,0,0,1,162.88,121.54Z"/><path class="c" d="M148.16,109.51v0l.11.19c1.16,1.93,2.87,3,4.5,2.06s1.41-2.4.75-4.09h-.76s1.54,2.41-.35,3.52S148.16,109.51,148.16,109.51Z"/><path class="k" d="M146.45,108.06a7.12,7.12,0,0,0,1.69,3.34l.81-.17-.37.77c1.29,2.66,2,8.13,2,8.13s.39-8.25-1.93-12.38c-.89-1.59-1.36-2-1.59-1.8l-.1.11A2.52,2.52,0,0,0,146.45,108.06Z"/><path class="f" d="M148.06,95.76h0a5.32,5.32,0,0,1,8.79,2.08,3.47,3.47,0,0,1-1,6.78,3.54,3.54,0,0,1-1.59-.36,5.37,5.37,0,0,1-4.2.33c-.1.57-.59,3.56.63,5.06,0,0-4.92-1.48-5-6.68S148.06,95.76,148.06,95.76Z"/><path class="h" d="M157,102.2a4.81,4.81,0,0,0-.84,2.41c-.33,1.9-1.13,4.08-3.54,4.14-2.68.06-2.8-3.3-2.51-4.25a1.62,1.62,0,0,1-1.06-1.42c-.11-1.15.49-1.92,1.23-.93s1.49,1.81,3.25,1.48c1.6-.3,2.27-1.06,3-2.7C156.53,100.93,157,101.22,157,102.2Z"/><path class="l" d="M157.3,123.1l.11,0a.48.48,0,0,0,.35-.58l-.71-2.77a.49.49,0,0,0-.59-.35.49.49,0,0,0-.34.59l.71,2.77A.47.47,0,0,0,157.3,123.1Z"/><path class="m" d="M150.79,130.75l0-3.3a19.53,19.53,0,0,1-5.71-3.39,9.61,9.61,0,0,1-1.06,2.38C143.92,126.53,146.75,130.59,150.79,130.75Z"/><path class="h" d="M93.51,45.5a.5.5,0,0,0-.62.29c-.07.16,0,.08-.11.25a.46.46,0,0,0-.2-.29.47.47,0,0,0-.7.21,6.11,6.11,0,0,1-2,2.7.15.15,0,0,1-.2-.23,1.14,1.14,0,0,1,.15-.17,5.78,5.78,0,0,0,.73-.85.46.46,0,0,0-.24-.71h0a.46.46,0,0,0-.51.16,7,7,0,0,1-.63.72,2.42,2.42,0,0,0-.78,1.74,1.72,1.72,0,0,1-1,1.57h0l-1.75.59,1.92,2.75A34.59,34.59,0,0,0,91,52.37l.37-.21a6.72,6.72,0,0,0,1.1-.88l.16-.15,0,0v0h0a10.46,10.46,0,0,0,1.66-2.33.51.51,0,0,0-.2-.68.5.5,0,0,0-.32,0c.12-.23.24-.47.35-.74a.5.5,0,0,0-.24-.65.47.47,0,0,0-.31,0,4.49,4.49,0,0,0,.22-.49A.48.48,0,0,0,93.51,45.5Z"/><path class="e" d="M86.77,105.27c0,4.2-5.89,7.6-13.16,7.6s-13.16-3.4-13.16-7.6,5.89-7.59,13.16-7.59S86.77,101.08,86.77,105.27Z"/><path class="g" d="M70.5,96.26l.52,3a1.41,1.41,0,0,1-.18,1,4.23,4.23,0,0,0-.66,2.58c.19,1.62,1.58,1.21,4.13,2.63s4.82,1.62,6.15,1c6.52-3-6.4-2.74-6.4-8V94"/><path class="h" d="M66.79,98.25l.52,3a1.43,1.43,0,0,1-.18,1,4.22,4.22,0,0,0-.66,2.59c.19,1.61,1.57,1.21,4.12,2.63s4.83,1.62,6.15,1c6.53-3-6.4-2.74-6.4-8V96"/><path class="d" d="M75.88,97.83h0a6.11,6.11,0,0,1-6.08,0h0a3,3,0,0,1-1.49-2.59V66.49h9.06V95.24A3,3,0,0,1,75.88,97.83Z"/><path class="n" d="M71.39,100.48h0a6.09,6.09,0,0,1-6.07,0h0a3,3,0,0,1-1.5-2.59v-23l9.07-5.73V97.89A3,3,0,0,1,71.39,100.48Z"/><path class="b" d="M67.84,72.5l8.92-5.16S77.69,53.27,74,50.07l-3.74-1.26L63.82,52Z"/><path class="g" d="M65.26,44.43v2.42c0,1.5-1,1.59-1,1.59l1,4.56h3a2.88,2.88,0,0,0,2.88-2.88V44.43Z"/><path class="c" d="M67.67,46.2l2.53-1.48a10.33,10.33,0,0,1,8.09,5.54l2.2,3.7a1.07,1.07,0,0,1,1-.53l4.94-3.84A4.85,4.85,0,0,1,90,54.65l-7.24,4.87A3.65,3.65,0,0,1,78,59l-.17-.19V80.62a4.06,4.06,0,0,1-2,3.52l-.67.38V59.23a13.53,13.53,0,0,0-3.95-9.55Z"/><path class="c" d="M64,48.28l-1.12.64a10,10,0,0,0-4.81,6.59l-.87,4a11.59,11.59,0,0,0,1.29,8.17l2.06,3.56V82.45a3.55,3.55,0,0,0,1.79,3.09l1.77,1a7.54,7.54,0,0,0,7.51,0h0V62.32A15.86,15.86,0,0,0,64,48.28Z"/><line class="o" x1="65.88" y1="42.71" x2="65.58" y2="42.71"/><path class="k" d="M62,74.5a4.61,4.61,0,0,0,3.84-3.91l1.46.86s0,3.79-3.68,4.15Z"/><path class="b" d="M66,54.62c-1.35-2.52-2.76-6-1.84-8.17a2.29,2.29,0,0,1,1.32-1.35l.11.36-.06-.18.06.18a1.94,1.94,0,0,0-1.08,1.16c-.47,1.12-.53,3.4,1.82,7.82Z"/><path class="b" d="M69.52,63.05l-.35-.15a6.33,6.33,0,0,0,.36-1.26,6,6,0,0,1-3.26-3c-1.24-2.25-1-3.79-.12-4.32s1.67-.12,2.36.81A9.17,9.17,0,0,1,70,61.38a3.27,3.27,0,0,0,1.43.06l.1.37a3.68,3.68,0,0,1-1.59-.07A6.18,6.18,0,0,1,69.52,63.05Zm-2.68-8.59a.87.87,0,0,0-.49.14c-.66.42-.86,1.79.25,3.82a5.72,5.72,0,0,0,3,2.85,8.77,8.77,0,0,0-1.37-6A1.85,1.85,0,0,0,66.84,54.46Z"/><path class="b" d="M75.93,57l-.37-.08c0-.25,1.27-6.21-5-7.94l.11-.37C77.28,50.45,75.94,57,75.93,57Z"/><path class="h" d="M74.45,44.78a.14.14,0,0,1,0-.06,5,5,0,0,1-.12-2.22c0-.08,0-.15,0-.22h0a5.62,5.62,0,0,0,.08-.92,5.24,5.24,0,0,0-10.48,0,5,5,0,0,0,.15,1.23.65.65,0,0,0-.28,0c-.51.2-.6,1.17-.21,2.17s1.12,1.65,1.63,1.45c.29-.12.45-.49.45-1a5.25,5.25,0,0,0,3,1.31,3.7,3.7,0,0,0,4,.34c1.57-.63,1.89-1.27,1.91-1.7h0A2,2,0,0,0,74.45,44.78Z"/><path class="f" d="M68.63,50.33c-2.64-1.6-3-5-2.75-7.62h.81s1.21,5.57,5.89,3.89c1.59-.57,1.92-1,1.94-1.39.09,1.16-.54,2.4.07,3.46S73.35,53.16,68.63,50.33Z"/><circle class="f" cx="75.57" cy="58.15" r="1.39"/><circle class="f" cx="71.43" cy="61.55" r="0.86"/><circle class="f" cx="69.34" cy="63.04" r="0.86"/><path class="e" d="M115.2,119.14c0,4.19-5.89,7.59-13.16,7.59s-13.16-3.4-13.16-7.59,5.89-7.59,13.16-7.59S115.2,115,115.2,119.14Z"/><path class="f" d="M108.19,113.35s2.07,2.52,1.23,4.82a.79.79,0,0,1-.42.44,4.71,4.71,0,0,1-3.65.25c-1.76-.81-3.09-.08-4.51-1.16l0,0a1.59,1.59,0,0,1,.8-2.81,4.27,4.27,0,0,0,3.46-2.46"/><path class="f" d="M103.41,115.66a7.58,7.58,0,0,1,.53,5.84,5.76,5.76,0,0,1-3.15-.19,6.68,6.68,0,0,1-5.4.19,4.88,4.88,0,0,1-2.27-1.84.65.65,0,0,1,.4-1,5.87,5.87,0,0,1,3,0c2.43.64,6.25-7.42,6.25-7.42Z"/><path class="p" d="M109.52,114.08h0a6,6,0,0,1-6,0h0a2.94,2.94,0,0,1-1.48-2.56V83.1h9v28.42A2.94,2.94,0,0,1,109.52,114.08Z"/><path class="e" d="M105.09,116.7h0a6,6,0,0,1-6,0h0a2.94,2.94,0,0,1-1.47-2.55V91.39l9-5.67v28.43A2.93,2.93,0,0,1,105.09,116.7Z"/><path class="c" d="M106.68,68.59s-.72,1.77.75,2.57l-5.94,1.28s.11-1.69-.66-1.6c-2.7.31-3-3-3-3a5.72,5.72,0,0,1-.07-1.45s-.39-.41-.26-.79.88-.6.9-1.42-.8-1.38.75-3.42,5.82.9,5.82.9Z"/><path class="f" d="M100,66.84a8.78,8.78,0,0,0,.24-2.41.45.45,0,0,1,.29-.44c.38-.13.81,0,1,.75a2.3,2.3,0,0,1-.62,2.31,5.64,5.64,0,0,1,2.31,1.24,8.12,8.12,0,0,1,.73.64,1.71,1.71,0,0,0,2.57-.14l0,0a12.62,12.62,0,0,0,3-6.54c.37-2.26-1.24-4.37-3.35-5.28s-5.69-.59-6.38.35l.09-.78s-5.75,2.69-2.14,5.22c1.82,1.28,1.9,3.71,1.87,5.06a.19.19,0,0,0,.15.19h0A.2.2,0,0,0,100,66.84Z"/><path class="f" d="M111,87.55V91.4a1.36,1.36,0,0,1-.65,1.17l-5,3.12a6,6,0,0,1-5.63.42l-1.34-.58a1.37,1.37,0,0,1-.81-1.25V90.44a1.35,1.35,0,0,0,.81,1.24l1.34.59a6,6,0,0,0,5.63-.42l5-3.12A1.39,1.39,0,0,0,111,87.55Z"/><path class="g" d="M111,75.58v12a1.39,1.39,0,0,1-.65,1.18l-5,3.12a6,6,0,0,1-5.63.42l-1.34-.59a1.35,1.35,0,0,1-.81-1.24V79.37a7.9,7.9,0,0,1,0-1.71,6.5,6.5,0,0,1,3.83-5.56c1.77-.79,2.9-1.15,3.55-1.42a5.75,5.75,0,0,1,3-.4C109.41,70.49,111,71.68,111,75.58Z"/><path class="c" d="M87.62,82.62A3.35,3.35,0,0,1,88,81.37,3.29,3.29,0,0,1,89.34,80,1.24,1.24,0,0,0,90,81l1.14.56A3,3,0,0,1,89.23,84,4.29,4.29,0,0,0,87.62,82.62Z"/><path class="c" d="M89.57,80.57s-.63-2-1.44-2.43a3.51,3.51,0,0,0-.83-.45.4.4,0,0,0-.36.67c.06.06.71.29.77.35.46.4.19,1-.38.72a25.57,25.57,0,0,0-2.76-1.83.58.58,0,0,0-.64.1h0a.39.39,0,0,1-.44.06l-.1-.05a.41.41,0,0,0-.47.08l0,0a.4.4,0,0,0,0,.56h0a.41.41,0,0,1,0,.53l0,0a.41.41,0,0,0,0,.51l0,0a.43.43,0,0,1,.09.22,1.31,1.31,0,0,0,.27.69,10.73,10.73,0,0,0,1,1.2c.65.43.43.14,3.25,1"/><path class="g" d="M94.88,88.12a11.3,11.3,0,0,1-6.57-3.18A2.64,2.64,0,0,1,92,81.18c.7.69,2.56,2,3.78,1.6s2.51-2.87,3.23-6.57a2.64,2.64,0,1,1,5.19,1c-1.17,6-3.49,9.57-6.88,10.61A6.9,6.9,0,0,1,94.88,88.12Z"/><path class="g" d="M200.09,139.76a4.25,4.25,0,0,0-.34-2.06c-.11-.17-1.74-1.26-2.5-.72a.63.63,0,0,0-.58-.16.21.21,0,0,0-.11.32l2.62,4.21"/><circle class="f" cx="208.48" cy="139.23" r="4.05"/><path class="e" d="M215.36,169.51c0,2.79-3.85,5.11-8.68,5.18s-8.78-2.14-8.82-4.92,3.85-5.11,8.68-5.18S215.32,166.73,215.36,169.51Z"/><path class="g" d="M207.54,160.66s1.69,5.86,1.49,7-2.25,2.6-2.25,2.6-1.14.62-.15.94,1.27.38,3-.75,1.59-.63.88-2.52,1.31-5.54-.22-7.49S207.54,160.66,207.54,160.66Z"/><path class="g" d="M204.23,159.86s1.05,6,.72,7.12-2.52,2.34-2.52,2.34-1.2.49-.25.91,1.22.52,3.09-.42,1.64-.44,1.15-2.4,1.9-5.37.59-7.47S204.23,159.86,204.23,159.86Z"/><path class="f" d="M203.81,164.79h0a3.84,3.84,0,0,0,3.81,0h0a1.89,1.89,0,0,0,.91-1.64l-.11-8-5.69.08.12,8A1.87,1.87,0,0,0,203.81,164.79Z"/><path class="f" d="M207.52,166.1h0a3.82,3.82,0,0,0,3.8,0h0a1.88,1.88,0,0,0,.92-1.64l-.14-9.4-5.68.08.14,9.4A1.85,1.85,0,0,0,207.52,166.1Z"/><path class="c" d="M212.12,156s-2.46,4.49-9.35.13c0,0-1-7,1.85-10.25s6.87-.76,6.95,1.1S212.39,150.72,212.12,156Z"/><path class="l" d="M206,144.12s-2.72,6.53-2.43,9.23c0,0-2.33-.48-2.31-1.6s2.1-4.77,2.1-4.77-4.89-1.57-4.82-6.27c0,0,.33-1.4,2.4-1.12C200.94,139.59,200.79,142.1,206,144.12Z"/><path class="g" d="M214.63,154.79a4.27,4.27,0,0,0,.19,2.08.21.21,0,0,0,.4-.05.86.86,0,0,0,0-.42c-.07-.5.22-.45.3-.23.13.39,1,2.09,1.75,1.61a.64.64,0,0,0,.56.2.22.22,0,0,0,.14-.31l-2.3-4.4"/><path class="g" d="M206.37,142.87l-.65,2.42a1.28,1.28,0,0,0,.2,1.09c.29.38.89.67,2.07.07a2.1,2.1,0,0,0,1-2.39,4.65,4.65,0,0,1,.67-2Z"/><path class="g" d="M205.56,137.74c-.2.23-.18.17-.6,1.08-1,2.16-1.07,4.1-.08,4.8,1.94,1.38,4-.59,4.4-1.38,0,0,.38.55,1.13-.13s.84-1.55-.25-1.35.56-1.2-.39-2.47S206.48,136.71,205.56,137.74Z"/><path class="l" d="M208.65,145.59c-.15,1.94-.49,7.83.79,9.36a3.59,3.59,0,0,0,3.46-1l1,1.12a1.63,1.63,0,0,0,1.82-.37,1.42,1.42,0,0,0,.4-1.77s-1.89-2.88-2.76-4.36c-.73-1.23-1.95-3.49-4.21-4.09h0A1.82,1.82,0,0,0,208.65,145.59Z"/><path class="c" d="M197.78,133.82a11.26,11.26,0,0,1,2,2.81c.26.93-1.34,3.12-2.3,3.12a2.49,2.49,0,0,1-2.23-1.7c-.17-.85.79-2,0-3.28"/><path class="h" d="M174.08,124.32a5.4,5.4,0,0,1,4.4,3.12c.44-1,1.73-5.14,2.07-6.42L179,112.89s-3.78,9.92-4.85,11.37Z"/><path class="f" d="M172.35,130a3.69,3.69,0,0,0,.69-1.69,2.39,2.39,0,0,1,1.47.28,2.6,2.6,0,0,1,1,.9l-.67.86a1.1,1.1,0,0,0-.17,1h.16a2.84,2.84,0,0,0,2.43-1.42,23.33,23.33,0,0,0,1.24-2.46,5.4,5.4,0,0,0-4.4-3.12c-.48.66-1.14,1.7-1.73,2.65A2.86,2.86,0,0,0,172.35,130Z"/><path class="g" d="M191,97.82a2.88,2.88,0,0,0-5.76.08,3.08,3.08,0,0,0,.07.61,4.48,4.48,0,0,0-.64-.06,5,5,0,0,0-1.9.41,2.87,2.87,0,1,0-3,4.9,5,5,0,0,0,10-.38,5.09,5.09,0,0,0-.87-2.75A2.86,2.86,0,0,0,191,97.82Z"/><path class="e" d="M197.08,163.38c.06,4.19-5.78,7.68-13.05,7.78s-13.21-3.21-13.27-7.4,5.78-7.68,13.05-7.78S197,159.19,197.08,163.38Z"/><path class="a" d="M188.14,111.74c1.79,1.31-2.47,5.51-5.14,4.86-2.95-.72-1.66-3.72-.71-5.72s4.62-5.22,4.37-3.69C186,111.4,187.17,111,188.14,111.74Z"/><path class="c" d="M185.37,158.22c.59,1.23-1.27,3.41-1.27,3.41s-4.73,1.48-4.79.08a18,18,0,0,0,2.72-3.93.87.87,0,0,0,.06-.45l-.59-8.43a4.3,4.3,0,0,0-.78-2.19h0a4.26,4.26,0,0,1-.74-1.77l.28-10.58,5.09.18c-.61,1.52-2.38,7.26-.13,10.88,1.52,2.46-.46,7.14-.55,9.31C184.59,156.69,184.48,156.46,185.37,158.22Z"/><path class="f" d="M179.9,164.68c1.93-.23,2.91-2.16,4-2.47s3-1,1.77-3.39c-.12-.22-.21-.42-.31-.6.33.69-.45,1.38-1.2,1.86l-2.49,1.67a1.8,1.8,0,0,1-1.56.22l-.81-.26a8.8,8.8,0,0,1-1.15.95C175.74,164.33,178.05,164.89,179.9,164.68Z"/><path class="c" d="M191,159.78c.59,1.23-1.28,3.41-1.28,3.41s-4.72,1.48-4.79.08a17.34,17.34,0,0,0,2.72-3.93.78.78,0,0,0,.07-.45l-.59-8.43a4.31,4.31,0,0,0-.79-2.19h0a4.38,4.38,0,0,1-.73-1.77l-1.73-10.22,7.1-.18c-.61,1.52-2.38,7.26-.13,10.88,1.52,2.46-.46,7.14-.55,9.31C190.16,158.25,190.06,158,191,159.78Z"/><path class="f" d="M185.48,166.24c1.93-.23,2.9-2.16,4-2.47s3-1,1.78-3.39c-.12-.22-.22-.42-.31-.6.33.69-.45,1.38-1.2,1.86l-2.49,1.67a1.8,1.8,0,0,1-1.56.22l-.82-.26a8.7,8.7,0,0,1-1.14.95C181.32,165.89,183.63,166.45,185.48,166.24Z"/><path class="f" d="M191.63,131.12c1,2.19,1.78,3.87,1.78,3.87a3.46,3.46,0,0,0,5-2.48,17.57,17.57,0,0,1-1.94-3.91A3.81,3.81,0,0,1,191.63,131.12Z"/><path class="h" d="M188.23,122.1c.26,1.73,2,5.89,3.4,9a3.81,3.81,0,0,0,4.85-2.52c-.55-1.33-1.15-2.87-1.72-4.4,0,0,0,0,0,0-1.59-4.23-3.05-8.46-3.05-8.46l-.14.26Z"/><path class="g" d="M179,112.89a4,4,0,0,1,3.44-2.83s-1.25,3.64.34,4.54a3.3,3.3,0,0,0,4-.6,12.79,12.79,0,0,0,1.42-2.26,7.66,7.66,0,0,1,3.86,5c.24,1.14-5.47,5.11-3.18,9.94a45.71,45.71,0,0,1,4.81,20.18c.07,4.51-6.13,8.32-13.77,2.84a2.22,2.22,0,0,1-.92-1.51c-.41-3.14-1.53-13.66.72-22.28.73-2.8-.71-3.67-1.28-5.73C177.69,117.7,178.73,113.51,179,112.89Z"/><path class="c" d="M180.13,102.86a1.61,1.61,0,0,0-.33,1.06c0,.38,0,1.06,0,2.18,0,2.69.6,5,1.94,5.24,2.64.5,3.83-2.49,3.85-3.48a1.63,1.63,0,0,0,1.45-1c.46-1.06.13-2-.89-1.26s-.35-1.13-1.91-2-3.46.67-3.65-1.12A1,1,0,0,0,180.13,102.86Z"/><path class="c" d="M172.35,130a3,3,0,0,0,.77.82,2.84,2.84,0,0,0,1.53.52,1.1,1.1,0,0,1,.17-1l.67-.86a2.6,2.6,0,0,0-1-.9,2.39,2.39,0,0,0-1.47-.28A3.69,3.69,0,0,1,172.35,130Z"/><path class="c" d="M174.62,130.81s.28,1.76-.17,2.4c-.23.34-.28.51-.47.66a.34.34,0,0,1-.53-.37c0-.07.43-.49.46-.56.2-.48-.21-.8-.57-.41a22.36,22.36,0,0,1-1.41,2.46.51.51,0,0,1-.52.16h0a.35.35,0,0,0-.37.12l-.06.08a.33.33,0,0,1-.38.11h0a.36.36,0,0,1-.22-.44h0a.33.33,0,0,0-.17-.41l0,0a.32.32,0,0,1-.18-.39v0a.3.3,0,0,0,0-.21,1.13,1.13,0,0,1-.06-.63,10.3,10.3,0,0,1,.34-1.31c.34-.58.28-.27,2.09-2"/></svg>
