<svg xmlns="http://www.w3.org/2000/svg" width="300" height="200"><style>.st0{fill:#dceeff}.st2{fill:#97a2b9}.st4{fill:#00dbcc}.st5{fill:#fff}.st8{fill:#6fb7ff}.st10{fill:#ebeff3}.st12{fill:#8cc5ff}.st13{fill:#3f9fff}.st15{fill:#ffca6c}.st16{fill:#ffa8be}.st17{fill:#ff86a5}.st18{fill:#ff4575}.st19{opacity:.2}</style><path class="st0" d="M52 121.4c-49.4 34.3 48.6 79.9 128.2 55.8 167.8-50.9 118-151.4 55.4-157.3-79.4-7.6-89.5 19.4-131.3-2.4-73-38.1-120.3 15-94.9 43.8C30.9 85.7 119.8 74.4 52 121.4z"/><path d="M236.2 104.2c3.3 1.9 5.3 5.4 5.3 9.3v18c0 1-.4 1.9-1.1 2.5 1.7-.2 3.1-1.7 3.1-3.5v-18c0-3.8-2-7.4-5.3-9.3l-53.1-30.6c-.5-.3-1.2-.5-1.8-.5-1 0-1.9.4-2.5 1h.5c.6 0 1.2.2 1.8.5l53.1 30.6z" fill="#0093a6"/><path class="st0" d="M146.6 154.7l-24 13.9c-1.5.9-2 2.8-1.2 4.3.3.5.7.9 1.2 1.2l41.8 24.1c4.3 2.5 9.7 2.5 14 0l24-13.9c1.5-.9 2-2.8 1.2-4.3-.3-.5-.7-.9-1.2-1.2l-41.8-24.1c-4.3-2.5-9.7-2.5-14 0z"/><path class="st2" d="M202.4 178.8l-24 13.9c-4.3 2.5-9.7 2.5-14 0l-41.8-24.2c-.5-.3-.9-.7-1.1-1.1-.5-.8-.5-1.7-.2-2.6.1.2.1.4.2.6.3.5.7.9 1.1 1.1l41.8 24.2c4.3 2.5 9.7 2.5 14 0l24-13.9c.7-.4 1.2-1 1.4-1.7.5 1.4 0 2.9-1.4 3.7z"/><path d="M146.6 147.2l-24 13.9c-1.5.9-2 2.8-1.2 4.3.3.5.7.9 1.2 1.2l41.8 24.1c4.3 2.5 9.7 2.5 14 0l24-13.9c1.5-.9 2-2.8 1.2-4.3-.3-.5-.7-.9-1.2-1.2l-41.9-24.1c-4.2-2.5-9.6-2.5-13.9 0z" fill="#f8f8f9"/><path class="st4" d="M241.5 113.4v18c0 2-1.6 3.6-3.6 3.6-.6 0-1.2-.2-1.8-.5l-42.3-24.4V79.8l42.3 24.4c3.4 1.9 5.4 5.4 5.4 9.2z"/><path class="st5" d="M206.3 103.8v2.8l28.8 16.6v-2.7zm0-5.6v2.8l20.8 12v-2.7z"/><path class="st5" d="M201.8 104.8c-2.2 1.3-5.7-.7-7.9-4.5V91c2.2-1.2 5.7.9 7.9 4.7s2.2 7.8 0 9.1z" opacity=".4"/><path class="st5" d="M196.9 94.4v6l1.8 1.1v-6.1z"/><path class="st5" d="M195.2 95.4v2l5.2 3v-2z"/><path d="M193.8 100.2l.1.1v9.8l-10.8-6.2c-3.3-1.9-5.3-5.4-5.4-9.3v-18c0-2 1.6-3.6 3.6-3.6.6 0 1.2.2 1.8.5l10.8 6.2V91h-.1c-2.2 1.3-2.2 5.4 0 9.2z" fill="#03adb3"/><path class="st4" d="M193.9 91v9.4l-.1-.1c-2.2-3.9-2.2-8 .1-9.3z"/><path class="st8" d="M140.4 118.1l29.8 17.2c4 2.3 9.2.9 11.6-3.1.7-1.3 1.1-2.7 1.1-4.2V37.1c0-7-3.7-13.4-9.8-16.9L143 2.8c-3.4-2-7.8-.8-9.8 2.6-.6 1.1-1 2.3-1 3.6v95c.1 5.9 3.2 11.2 8.2 14.1z"/><path class="st8" d="M139.4 1.8c1.3 0 2.5.4 3.6 1l30.1 17.4c6 3.5 9.7 9.9 9.8 16.9V128c0 4.7-3.8 8.5-8.5 8.5-1.5 0-2.9-.4-4.2-1.1l-29.8-17.2c-5-2.9-8.1-8.3-8.1-14.1V9c0-4 3.2-7.2 7.1-7.2m0-1.8c-2.3 0-4.6.9-6.2 2.5-1.8 1.7-2.8 4-2.7 6.5v95c0 6.5 3.4 12.4 9.1 15.7l29.8 17.2c1.6.9 3.3 1.4 5.1 1.4 2.7 0 5.2-1 7.2-2.9s3.2-4.6 3.1-7.4V37.1c0-7.6-4.1-14.7-10.7-18.5L143.9 1.2C142.6.4 141 0 139.4 0z"/><path d="M181.9 26.4c-1.9-3.2-4.6-5.9-7.9-7.8L143.9 1.2c-3.5-2-7.9-1.5-10.7 1.3-1.8 1.7-2.8 4-2.7 6.5v95c0 6.5 3.5 12.4 9.1 15.7l29.8 17.2c1.6.9 3.3 1.4 5.1 1.4 2.7 0 5.2-1 7.2-2.9s3.2-4.6 3.1-7.4V37.1c-.1-3.8-1.1-7.4-2.9-10.7zm-7.5 110z" fill="#293754"/><path class="st5" d="M177.5 38.7v92.9c0 2.5-2 4.6-4.6 4.6-.8 0-1.6-.2-2.3-.6l-31.1-17.9c-4.5-2.6-7.3-7.4-7.3-12.6V8.9c0-1.8 1.4-3.3 3.2-3.3.6 0 1.1.1 1.7.4l32.2 18.6c5.1 2.9 8.2 8.3 8.2 14.1z"/><ellipse transform="rotate(-30 154.869 119.113)" class="st10" cx="154.9" cy="119.1" rx="3.2" ry="5.5"/><path class="st10" d="M151.4 29.2v18c0 2-1.6 3.6-3.5 3.6-.6 0-1.3-.2-1.8-.5l-13.7-7.9V12l13.7 7.9c3.2 1.9 5.3 5.5 5.3 9.3z"/><path d="M215.1 138.7v7.7c0 .6-.3 1.1-.8 1.4l-6.7 3.9c-.2.1-.5.2-.8.2-.3 0-.5-.1-.8-.2l-6.7-3.9c-.5-.3-.8-.8-.8-1.4v-7.9c.1-.5.4-.9.8-1.2l6.7-3.9c.5-.3 1.1-.3 1.6 0l6.7 3.9c.4.2.7.7.8 1.2v.2z" fill="#b2d9ff"/><path class="st12" d="M215.1 138.6v7.8c0 .6-.3 1.1-.8 1.4l-6.7 3.9c-.2.1-.5.2-.8.2v-8.6c0-.5.2-.9.6-1.1l6.9-4c.2-.1.5 0 .7.2v.1c.1 0 .1.1.1.1z"/><path class="st13" d="M206.8 143.3v8.6c-.3 0-.5-.1-.8-.2l-6.7-3.9c-.5-.3-.8-.8-.8-1.4V138.5c.1-.3.3-.4.6-.3h.1l6.9 4c.5.2.7.6.7 1.1z"/><path class="st5" d="M226.8 36.9v5.5c0 .4-.2.8-.6 1l-4.8 2.7c-.2.1-.4.1-.6.2-.2 0-.4-.1-.6-.2l-4.8-2.7c-.4-.2-.6-.6-.6-1v-5.6c.1-.3.3-.7.6-.8l4.8-2.7c.4-.2.8-.2 1.1 0l4.8 2.7c.3.2.5.5.6.8.1 0 .1.1.1.1z"/><path d="M226.8 36.8v5.6c0 .4-.2.8-.6 1l-4.8 2.7c-.2.1-.4.1-.6.2v-6.1c0-.3.2-.6.5-.8l4.9-2.8c.2-.1.4 0 .5.1.1 0 .1 0 .1.1z" fill="#ffeccb"/><path class="st15" d="M221 40.2v6.1c-.2 0-.4-.1-.6-.2l-4.8-2.7c-.4-.2-.6-.6-.6-1v-5.6c0-.2.2-.3.4-.2h.1l4.9 2.8c.4.2.6.5.6.8z"/><path class="st16" d="M74 24.7v5.5c0 .4-.2.8-.6 1l-4.7 2.7c-.2.1-.4.1-.6.1-.2 0-.4-.1-.6-.2l-4.8-2.7c-.4-.2-.6-.6-.6-1v-5.6c0-.3.2-.7.5-.8l4.8-2.7c.3-.2.8-.2 1.1 0l4.8 2.7c.3.2.5.5.6.8.1.1.1.1.1.2z"/><path class="st17" d="M74 24.6v5.6c0 .4-.2.8-.6 1l-4.7 2.7c-.2.1-.4.1-.6.1v-6.1c0-.3.2-.6.4-.8l4.9-2.8c.2-.1.4 0 .5.1.1.1.1.1.1.2 0-.1 0 0 0 0z"/><path class="st18" d="M68.1 27.9V34c-.2 0-.4-.1-.6-.2l-4.8-2.7c-.4-.2-.6-.6-.6-1v-5.6c0-.2.2-.3.4-.2h.1l4.9 2.8c.5.2.6.5.6.8z"/><path class="st16" d="M82.7 37.6l-.1 2.5c0 .2-.1.4-.3.4l-2.2 1.2c-.1 0-.2.1-.3.1-.1 0-.2 0-.3-.1l-2.2-1.3c-.2-.1-.3-.3-.2-.5l.1-2.5v-.1c0-.2.1-.3.3-.4l2.2-1.2c.2-.1.4-.1.5 0l2.2 1.3c.1.3.2.4.3.6z"/><path class="st17" d="M82.7 37.6l-.1 2.5c0 .2-.1.4-.3.4l-2.2 1.2c-.1 0-.2.1-.3.1l.1-2.8c0-.1.1-.3.2-.3l2.3-1.2c.1-.1.2 0 .3.1-.1-.1-.1 0 0 0z"/><path class="st18" d="M79.9 39.1l-.1 2.8c-.1 0-.2 0-.3-.1l-2.2-1.3c-.2-.1-.3-.3-.2-.5l.1-2.5c0-.1.1-.1.2-.1l2.2 1.4c.2 0 .3.1.3.3z"/><path class="st15" d="M101.2 30.9L140 53.3c1.7 1 3.9.4 4.9-1.3.3-.5.5-1.2.5-1.8v-18c0-3.8-2-7.4-5.4-9.3L101.2.5c-1.7-1-3.9-.4-4.9 1.3-.3.6-.5 1.2-.5 1.8v18c0 3.8 2.1 7.4 5.4 9.3z"/><path class="st5" d="M115.1 25.5v2.7l17.2 9.9v-2.7zm0-5.6v2.7l25.2 14.7v-2.8z"/><g class="st19"><ellipse transform="rotate(-30 106.61 19.578)" class="st5" cx="106.6" cy="19.6" rx="4.6" ry="8"/></g><path class="st5" d="M106.6 16l-.8 1.5-2-.8 1.4 2.4-.3 2h1.7l1.7 2-.3-2.4 1.4-.7-1.9-1.5-.9-2.5"/><path class="st2" d="M242.3 84.6v2.8l-13.4-7.8v-2.7zm11.7 6.8v2.7l-9.3-5.3V86zm-25.1-20.1V74l22.2 12.9v-2.8z"/><g class="st19"><ellipse transform="rotate(-30 220.348 70.976)" class="st2" cx="220.4" cy="71" rx="4.6" ry="8"/></g><path class="st2" d="M222.6 70.3l-4.5-2.6v5l.9-.5 3.6 2v-3.9"/><path class="st13" d="M65 119.7l34.4 19.8c1.7 1 3.9.4 4.8-1.3.3-.5.5-1.1.5-1.8V87.3c0-5.3-2.8-10.1-7.4-12.8L65.5 56.1c-1.7-1-3.8-.4-4.8 1.3-.3.5-.5 1.2-.5 1.8v52.2c0 3.4 1.8 6.6 4.8 8.3z"/><path class="st12" d="M61 122l34.4 19.9c1.7 1 3.8.4 4.8-1.3.3-.5.5-1.2.5-1.8V89.6c0-5.3-2.8-10.1-7.4-12.8L61.5 58.4c-1.7-1-3.9-.4-4.8 1.3-.3.5-.5 1.1-.5 1.8v52.2c0 3.4 1.8 6.6 4.8 8.3z"/><path class="st5" d="M93.2 122.3c-.9-1.6-2.1-2.9-3.6-3.8l-22.4-13c-1.1-.8-2.4-.9-3.6-.4-2 1.2-2 4.9 0 8.3.9 1.6 2.1 2.9 3.6 3.8l22.4 13c1.1.8 2.4.9 3.6.4 2-1.1 2-4.9 0-8.3z"/><path class="st15" d="M68.2 109.6l-.6 1-1.3-.6.9 1.7-.2 1.3h1.2l1.1 1.4-.2-1.6 1-.6-1.3-.9-.6-1.7m5.1 2.9l-.6 1-1.3-.5 1 1.6-.3 1.4h1.2l1.2 1.3-.3-1.6 1-.5-1.3-1-.6-1.7m5.1 3l-.6 1-1.3-.5 1 1.6-.3 1.3h1.2l1.2 1.4-.2-1.6.9-.5-1.3-1-.6-1.7m5.2 2.9l-.6 1.1-1.3-.6.9 1.6-.2 1.4h1.2l1.1 1.4-.2-1.7.9-.5-1.3-1-.5-1.7m5.1 3l-.6 1-1.3-.5.9 1.6-.2 1.4 1.2-.1 1.1 1.4-.2-1.6 1-.5-1.3-1-.6-1.7"/><path class="st5" d="M62.9 79.2l11 6.4v1.8l-11-6.4zm31.1 18V99L76 88.6v-1.8zM62.9 84.4v1.8l31.1 18v-1.8zm0 5.2v1.8l27.7 16v-1.8zm0 5.2l14.5 8.3-.1 1.8-14.4-8.4zm0-23.6c0 1.1.6 2.1 1.5 2.7l16.5 9.5c.7.4 1.6-.1 1.6-.9 0-1.1-.6-2.1-1.5-2.7l-16.5-9.5c-.7-.4-1.6.1-1.6.9z"/><path d="M95.7 166.1v3.4c0 .3-.1.5-.3.6l-3 1.7c-.1.1-.2.1-.3.1-.1 0-.2 0-.3-.1l-3-1.7c-.2-.1-.4-.4-.4-.6V166c0-.2.2-.4.3-.5l2.9-1.7c.2-.1.5-.1.7 0l3 1.7c.2.1.3.3.4.6 0-.1 0 0 0 0z" fill="#ffede8"/><path d="M95.7 166.1v3.5c0 .3-.1.5-.3.6l-3 1.7c-.1.1-.2.1-.3.1v-3.8c0-.2.1-.4.3-.5l3.1-1.8c.1-.1.2 0 .3.1-.1 0-.1 0-.1.1 0-.1 0-.1 0 0z" fill="#ffc8b9"/><path d="M92.1 168.1v3.8c-.1 0-.2 0-.3-.1l-3-1.7c-.2-.1-.4-.4-.4-.6v-3.6c0-.1.1-.2.3-.2h.1l3.1 1.8c0 .2.2.4.2.6z" fill="#ff9173"/><path d="M196.3 7.3c0 .3-.1.5-.4.6l-3 1.7c-.1.1-.2.1-.4.1-.1 0-.2 0-.4-.1l-3-1.7c-.2-.1-.4-.4-.4-.6V3.8c0-.2.2-.4.4-.5l2.9-1.7c.2-.1.5-.1.7 0l3 1.7c.2.1.4.4.4.7l.2 3.3z" fill="#dddaef"/><path d="M196.3 7.3c0 .3-.1.5-.4.6l-3 1.7c-.1.1-.2.1-.4.1V5.9c0-.2.1-.4.3-.5l3-1.7c.2-.1.4 0 .4.2l.1 3.4z" fill="#d4d0ea"/><path d="M192.6 5.9v3.8c-.1 0-.2 0-.4-.1l-3-1.7c-.2-.1-.4-.4-.4-.6V3.8c0-.1.1-.2.3-.2h.1l3.1 1.8c.2.1.3.3.3.5z" fill="#aaa2d6"/><path class="st4" d="M186.8 174.9l-.2-.1-4.8-2.8c-1-.6-2.2-.8-3.4-.8-2.2 0-4 .8-4 1.8.1.4.3.8.7 1l.2.1 4.8 2.8c1 .6 2.2.8 3.3.8 2.2 0 4-.8 4-1.8.1-.5-.2-.8-.6-1z"/><ellipse class="st5" cx="183.5" cy="175.7" rx="2.9" ry="1.3"/><path class="st13" d="M177.4 180.2l-.2-.1-4.8-2.8c-1-.6-2.2-.8-3.4-.8-2.2 0-4 .8-4 1.8.1.4.3.8.7 1 .1 0 .1.1.2.1l4.8 2.8c1 .6 2.2.8 3.3.8 2.2 0 4-.8 4-1.8.1-.4-.2-.8-.6-1z"/><ellipse class="st5" cx="174.1" cy="181.1" rx="2.9" ry="1.3"/><path d="M151.3 154.8l19.5 11.2-2.8 1.6-19.4-11.2zm-11.1 6.4l15.1 8.7-2.8 1.6-15.1-8.7zm5.6-3.2l10.3 6-2.7 1.6-10.4-6z" fill="#c6ccd5"/></svg>
